<?xml version="1.0" encoding="UTF-8"?>
<!-- Generated by Pixelmator Pro 3.7 -->
<svg width="1024" height="1024" viewBox="0 0 1024 1024" xmlns="http://www.w3.org/2000/svg">
    <linearGradient id="linearGradient1" x1="848.119792" y1="503.6875" x2="121.6875" y2="250.510417" gradientUnits="userSpaceOnUse">
        <stop offset="0" stop-color="#d6ae7b" stop-opacity="1"/>
        <stop offset="1" stop-color="#eacda3" stop-opacity="1"/>
    </linearGradient>
    <path id="Shape" fill="url(#linearGradient1)" fill-rule="evenodd" stroke="none" d="M 720.5 948.014587 C 716.648315 947.571899 198.653 868.335266 194.069809 866.997681 C 124.376572 846.657837 119.551323 783.97583 119.022766 779.903748 C 118.43103 775.344971 119.496368 271.380249 119.496368 263.323425 C 119.496368 198.323425 193.350006 183.682678 200.5 182.003113 C 207.649994 180.323547 676.025024 80.495361 684 78.820129 C 688.948975 77.780579 743.155762 62.017944 779.183777 101.918701 C 782.10553 105.154541 889.860168 262.71759 892.744812 267.253296 C 895.629395 271.789001 899.301941 278.875 900.906006 283 C 902.51001 287.125 904.634888 293.875 905.62793 298 C 907.337463 305.101135 907.453552 318.370239 907.811523 547.5 C 908.080078 719.371216 907.869873 792.578674 907.086182 800.12384 C 906.479248 805.96698 904.508789 838.777893 877.204102 863.150574 C 873.959473 866.046753 816.742981 909.08313 805.30188 917.56842 C 790.718262 928.384399 765.010132 953.130371 720.5 948.014587 Z"/>
    <path id="path1" fill="#000000" fill-rule="evenodd" stroke="none" d="M 293.799866 531.961182 C 271.22287 521.130005 260.130402 514.975098 254.584137 511.295898 C 248.3797 507.180054 240.406738 500.546204 233.860809 494.053162 C 227.215988 487.462097 221.059921 480.166565 217.463867 474.621277 C 214.297119 469.737915 210.254745 462.301147 208.48082 458.094971 C 206.706894 453.888855 204.263153 446.634277 203.050278 441.973755 C 201.595779 436.384705 200.656601 429.074402 200.291473 420.5 C 199.892197 411.12323 200.180496 404.712952 201.325897 397.5 C 202.199295 392 204.08992 383.900024 205.527298 379.5 C 206.964661 375.099976 209.877716 367.792053 212.000732 363.260132 C 214.123749 358.72821 218.285492 351.303223 221.249054 346.760132 C 224.212631 342.217041 230.014343 334.450012 234.141785 329.5 C 238.269196 324.549988 245.888306 316.507446 251.07309 311.627625 C 256.257904 306.747803 265.450012 299.036255 271.5 294.490784 C 277.549988 289.945313 286.549988 283.677917 291.5 280.563293 C 296.450012 277.448608 307.475006 271.377502 316 267.071899 C 324.524994 262.766296 338.141754 256.697449 346.25943 253.585571 C 354.377106 250.473694 367.877106 245.961487 376.25943 243.558472 C 384.641754 241.155457 398.475006 237.800598 407 236.10321 C 415.524994 234.405823 427.674988 232.343628 434 231.520508 C 440.325012 230.697388 454.340973 229.494446 465.146637 228.84729 C 480.115509 227.950806 489.282104 227.946411 503.646606 228.828796 C 514.015991 229.46582 527.450012 230.712585 533.5 231.599487 C 539.549988 232.486328 550.41449 234.713928 557.643311 236.549622 C 564.872131 238.385376 575.222107 241.544556 580.643311 243.570007 C 586.064453 245.595459 595 249.501892 600.5 252.250916 C 606 254.999939 613.650024 259.281494 617.5 261.765442 C 621.349976 264.24939 627.650024 268.862793 631.5 272.017456 C 635.349976 275.172058 640.996643 280.396179 644.048096 283.626587 C 647.099609 286.856934 651.721558 292.495422 654.319153 296.156494 C 656.916748 299.817566 660.799072 306.567566 662.946533 311.156494 C 665.093994 315.745422 667.830139 323.099976 669.026794 327.5 C 670.520691 332.992676 671.375 339.731079 671.752747 349 C 672.084534 357.141846 671.835999 365.764099 671.126526 370.723999 C 670.479553 375.247192 668.815002 382.897217 667.42749 387.723999 C 666.039978 392.550781 662.229675 401.900024 658.960083 408.5 C 655.690491 415.099976 650.012329 424.680847 646.34198 429.790833 C 642.67157 434.900757 634.905579 443.949646 629.084229 449.899414 C 623.262939 455.849182 616.25 462.557007 613.5 464.805725 C 610.75 467.054443 605.575012 471.08905 602 473.771545 C 598.424988 476.454041 591.450012 481.359985 586.5 484.673645 C 581.549988 487.987244 573.900024 492.770874 569.5 495.303894 C 565.099976 497.836914 556.099976 502.588806 549.5 505.863647 C 542.900024 509.138489 532.775024 513.708435 527 516.019043 C 521.224976 518.32959 510.702209 522.213989 503.615967 524.651001 C 496.529724 527.088013 485.954712 530.376953 480.115967 531.959717 C 474.277191 533.54248 464.100006 535.958374 457.5 537.328308 C 450.899994 538.698303 440.774994 540.517334 435 541.370728 C 429.225006 542.223999 419.584351 543.389709 413.576324 543.961121 C 407.568298 544.532471 393.393311 544.984741 382.076324 544.966003 C 370.759338 544.947266 356.325012 544.307129 350 543.543457 C 339.678467 542.297302 338.375275 542.315796 337.282898 543.723633 C 336.613495 544.586426 335.083832 548.243103 333.883636 551.849731 C 332.38562 556.351196 331.690765 560.929871 331.667389 566.453552 C 331.64325 572.152344 332.271942 576.402771 333.822144 581.021484 C 335.026001 584.608337 337.539856 589.783325 339.408478 592.521484 C 341.27713 595.259644 345.212158 599.810791 348.152985 602.63501 C 351.093842 605.459229 355.975006 609.379028 359 611.34552 C 362.024994 613.312012 368.325012 616.704956 373 618.885376 C 377.674988 621.065796 387.350006 624.867554 394.5 627.333801 C 401.649994 629.800049 414.25 634.165833 422.5 637.035583 C 430.75 639.905396 442.058228 644.389404 447.629425 647.000244 C 453.200592 649.610962 460.850586 653.752441 464.629425 656.203491 C 468.408234 658.654419 474.075928 663.020935 477.224304 665.906738 C 480.37265 668.792603 485.041809 674.302368 487.600159 678.150696 C 490.158569 681.999023 493.391663 688.376953 494.78479 692.323853 C 496.396301 696.889282 497.488708 702.523682 497.787537 707.811157 C 498.111267 713.539795 497.751282 718.172485 496.628906 722.720581 C 495.733337 726.349609 493.92395 731.670654 492.608093 734.544922 C 491.292175 737.419189 487.978943 743.084961 485.2453 747.135498 C 482.511719 751.185974 477.001312 757.587952 472.999969 761.362122 C 468.998627 765.136292 461.956848 770.680298 457.351563 773.68219 C 452.746277 776.684082 445.720703 780.632141 441.739166 782.455688 C 437.757629 784.279175 430.946838 786.952515 426.604065 788.396362 C 422.261292 789.840271 414.386292 791.895264 409.104065 792.963135 C 403.821838 794.030884 394.100006 795.371399 387.5 795.941956 C 380.899994 796.512573 369.200012 796.922424 361.5 796.852844 C 353.799988 796.783264 344.759705 796.413025 341.410431 796.030029 C 338.061188 795.647095 333.223114 794.318237 330.65921 793.077087 C 328.095306 791.835938 324.635406 789.17334 322.97052 787.160217 C 321.305634 785.147095 319.445526 781.847839 318.836975 779.828491 C 318.228394 777.809143 317.949799 773.874146 318.217896 771.083984 C 318.525085 767.887268 319.786713 764.261963 321.62912 761.281921 C 323.413971 758.39502 326.466095 755.373962 329.464478 753.526428 C 334.376099 750.5 334.376099 750.5 354.938049 750.859131 C 366.31781 751.057861 380.436432 750.702759 386.554321 750.063843 C 392.634186 749.428955 400.959198 748.070374 405.054321 747.044739 C 409.149445 746.019104 415.649994 743.9953 419.5 742.547424 C 423.350006 741.099548 429.513489 738.128174 433.196655 735.944458 C 436.879822 733.760742 442.090302 729.834106 444.775482 727.218689 C 447.670837 724.39856 450.398132 720.524353 451.477234 717.69873 C 453.048492 713.584473 453.12793 712.358643 452.059143 708.717102 C 451.21405 705.837646 449.104889 702.861694 445.409851 699.335205 C 441.816406 695.90564 436.554779 692.482544 429.749115 689.146545 C 424.112091 686.383423 411.850006 681.383423 402.5 678.0354 C 393.149994 674.6875 379.875 669.905518 373 667.408875 C 366.125 664.912231 355.898712 660.615967 350.274933 657.861572 C 344.651154 655.107117 336.116241 650.073975 331.308502 646.676758 C 326.500732 643.279541 319.081299 636.998779 314.820892 632.719421 C 310.560486 628.440125 304.801483 621.476196 302.023102 617.244019 C 299.244751 613.011902 295.598602 605.989136 293.920563 601.637817 C 292.242523 597.286499 290.165375 590.215332 289.304657 585.924011 C 288.128632 580.060547 287.877075 574.689575 288.292328 564.310791 C 288.698486 554.159363 289.501343 548.043945 291.322388 541.230591 L 293.799866 531.961182 Z M 387.5 500.481812 C 401.038635 500.263794 416.730682 499.413696 423.5 498.531616 C 430.100006 497.67157 441.243774 495.821594 448.263947 494.420532 C 455.284119 493.01947 466.534119 490.317322 473.263947 488.415771 C 479.993774 486.514221 490.028931 483.408936 495.56427 481.515076 C 501.09967 479.621277 509.649658 476.394043 514.56427 474.343445 C 519.478943 472.292847 528.905518 467.845825 535.512268 464.461182 C 542.119019 461.076538 551.776062 455.677429 556.972412 452.463135 C 562.168701 449.248779 570.938171 443.217224 576.460144 439.05957 C 581.982056 434.901917 590.829956 427.225159 596.122192 422.000061 C 601.414368 416.775024 608.527771 408.713562 611.92981 404.085632 C 615.331848 399.457764 620.098389 391.582764 622.522095 386.585632 C 624.945862 381.588562 627.613281 374.575012 628.449707 371 C 629.286072 367.424988 629.971741 360.224976 629.973328 355 C 629.974976 349.775024 629.318481 343.025024 628.514526 340 C 627.710571 336.974976 625.486572 331.349976 623.572388 327.5 C 621.658142 323.650024 617.272278 317.392517 613.82605 313.594482 C 610.379761 309.796448 604.352417 304.316772 600.431946 301.417419 C 596.511414 298.518066 590.332336 294.569519 586.700623 292.642883 C 583.068909 290.716187 575.946045 287.478882 570.87207 285.448792 C 565.798035 283.418762 558.688599 280.895081 555.073303 279.840698 C 551.458008 278.786316 544.337646 277.051025 539.250305 275.984558 C 534.162903 274.91803 524.937927 273.472717 518.750305 272.772705 C 512.562622 272.072693 497.150024 271.5 484.5 271.5 C 469.153381 271.5 456.342285 272.082825 446 273.251587 C 437.475006 274.214966 423.975006 276.340576 416 277.975098 C 408.024994 279.60968 395.452606 282.783997 388.06131 285.029114 C 380.670044 287.274292 369.083923 291.309387 362.314362 293.996094 C 355.54483 296.682739 344.267212 301.753845 337.253052 305.265137 C 330.238861 308.776489 320.227356 314.254456 315.00528 317.438477 C 309.783173 320.622437 301.233154 326.431519 296.00528 330.347534 C 290.777374 334.263489 281.737396 342.199829 275.916443 347.983765 C 270.09549 353.7677 262.953735 361.875 260.045868 366 C 257.13797 370.125 253.017639 377.099976 250.889557 381.5 C 248.761475 385.900024 246.115753 393.059509 245.010162 397.409973 C 243.720978 402.482849 243 408.594543 243 414.44989 C 243 419.471313 243.675934 426.261841 244.502075 429.539917 C 245.328217 432.817932 247.892639 439.2771 250.200806 443.893494 C 253.19928 449.890625 256.617004 454.631775 262.171631 460.499878 C 266.447418 465.016907 273.274506 471.013855 277.342926 473.826355 C 281.411346 476.638855 288.961029 480.996399 294.120026 483.509766 C 299.279022 486.023132 308.450012 489.650879 314.5 491.571533 C 320.549988 493.492126 330.54657 495.969116 336.7146 497.075928 C 342.88266 498.182739 351.432648 499.488831 355.7146 499.978333 C 359.996582 500.467896 374.299988 500.694397 387.5 500.481812 Z"/>
</svg>
